<mxfile host="app.diagrams.net" modified="2024-03-20T08:03:21.830Z" agent="Mozilla/5.0 (Windows NT 10.0; Win64; x64) AppleWebKit/537.36 (KHTML, like Gecko) Chrome/122.0.0.0 Safari/537.36 Edg/122.0.0.0" etag="9HDQgZMkTD4Hu0NSqina" version="24.0.7" type="github">
  <diagram id="R2lEEEUBdFMjLlhIrx00" name="Page-1">
    <mxGraphModel dx="1875" dy="664" grid="1" gridSize="10" guides="1" tooltips="1" connect="1" arrows="1" fold="1" page="1" pageScale="1" pageWidth="850" pageHeight="1100" math="0" shadow="0" extFonts="Permanent Marker^https://fonts.googleapis.com/css?family=Permanent+Marker">
      <root>
        <mxCell id="0" />
        <mxCell id="1" parent="0" />
        <mxCell id="C-vyLk0tnHw3VtMMgP7b-12" value="" style="edgeStyle=entityRelationEdgeStyle;endArrow=ERzeroToMany;startArrow=ERone;endFill=1;startFill=0;" parent="1" target="C-vyLk0tnHw3VtMMgP7b-17" edge="1">
          <mxGeometry width="100" height="100" relative="1" as="geometry">
            <mxPoint x="700" y="165" as="sourcePoint" />
            <mxPoint x="460" y="205" as="targetPoint" />
          </mxGeometry>
        </mxCell>
        <mxCell id="yFTh20599D0vbG3zgtuJ-17" value="1" style="edgeStyle=orthogonalEdgeStyle;rounded=0;orthogonalLoop=1;jettySize=auto;html=1;exitX=1;exitY=0;exitDx=0;exitDy=0;entryX=0;entryY=0.5;entryDx=0;entryDy=0;" edge="1" parent="1" source="yFTh20599D0vbG3zgtuJ-1" target="yFTh20599D0vbG3zgtuJ-14">
          <mxGeometry relative="1" as="geometry" />
        </mxCell>
        <mxCell id="yFTh20599D0vbG3zgtuJ-1" value="person" style="swimlane;childLayout=stackLayout;horizontal=1;startSize=50;horizontalStack=0;rounded=1;fontSize=14;fontStyle=0;strokeWidth=2;resizeParent=0;resizeLast=1;shadow=0;dashed=0;align=center;arcSize=4;whiteSpace=wrap;html=1;" vertex="1" parent="1">
          <mxGeometry x="-30" y="150" width="140" height="130" as="geometry" />
        </mxCell>
        <mxCell id="yFTh20599D0vbG3zgtuJ-2" value="&lt;u&gt;+personID&lt;/u&gt;&lt;br&gt;+name&lt;br&gt;+surname&lt;div&gt;+email&lt;/div&gt;&lt;div&gt;+password&lt;/div&gt;" style="align=left;strokeColor=none;fillColor=none;spacingLeft=4;fontSize=12;verticalAlign=top;resizable=0;rotatable=0;part=1;html=1;" vertex="1" parent="yFTh20599D0vbG3zgtuJ-1">
          <mxGeometry y="50" width="140" height="80" as="geometry" />
        </mxCell>
        <mxCell id="yFTh20599D0vbG3zgtuJ-4" value="trainee" style="swimlane;childLayout=stackLayout;horizontal=1;startSize=50;horizontalStack=0;rounded=1;fontSize=14;fontStyle=0;strokeWidth=2;resizeParent=0;resizeLast=1;shadow=0;dashed=0;align=center;arcSize=4;whiteSpace=wrap;html=1;" vertex="1" parent="1">
          <mxGeometry x="390" y="30" width="160" height="120" as="geometry" />
        </mxCell>
        <mxCell id="yFTh20599D0vbG3zgtuJ-5" value="&lt;u&gt;+traineeID&lt;/u&gt;&lt;div&gt;&lt;i&gt;+personID&lt;/i&gt;&lt;/div&gt;" style="align=left;strokeColor=none;fillColor=none;spacingLeft=4;fontSize=12;verticalAlign=top;resizable=0;rotatable=0;part=1;html=1;" vertex="1" parent="yFTh20599D0vbG3zgtuJ-4">
          <mxGeometry y="50" width="160" height="70" as="geometry" />
        </mxCell>
        <mxCell id="yFTh20599D0vbG3zgtuJ-23" style="edgeStyle=orthogonalEdgeStyle;rounded=0;orthogonalLoop=1;jettySize=auto;html=1;exitX=0.5;exitY=1;exitDx=0;exitDy=0;" edge="1" parent="yFTh20599D0vbG3zgtuJ-4" source="yFTh20599D0vbG3zgtuJ-5" target="yFTh20599D0vbG3zgtuJ-5">
          <mxGeometry relative="1" as="geometry" />
        </mxCell>
        <mxCell id="yFTh20599D0vbG3zgtuJ-10" value="instructor" style="swimlane;childLayout=stackLayout;horizontal=1;startSize=50;horizontalStack=0;rounded=1;fontSize=14;fontStyle=0;strokeWidth=2;resizeParent=0;resizeLast=1;shadow=0;dashed=0;align=center;arcSize=4;whiteSpace=wrap;html=1;" vertex="1" parent="1">
          <mxGeometry x="390" y="160" width="160" height="120" as="geometry" />
        </mxCell>
        <mxCell id="yFTh20599D0vbG3zgtuJ-11" value="&lt;u&gt;+instructorID&lt;/u&gt;&lt;div&gt;&lt;i&gt;+personID&lt;/i&gt;&lt;/div&gt;" style="align=left;strokeColor=none;fillColor=none;spacingLeft=4;fontSize=12;verticalAlign=top;resizable=0;rotatable=0;part=1;html=1;" vertex="1" parent="yFTh20599D0vbG3zgtuJ-10">
          <mxGeometry y="50" width="160" height="70" as="geometry" />
        </mxCell>
        <mxCell id="yFTh20599D0vbG3zgtuJ-12" value="admin" style="swimlane;childLayout=stackLayout;horizontal=1;startSize=50;horizontalStack=0;rounded=1;fontSize=14;fontStyle=0;strokeWidth=2;resizeParent=0;resizeLast=1;shadow=0;dashed=0;align=center;arcSize=4;whiteSpace=wrap;html=1;" vertex="1" parent="1">
          <mxGeometry x="390" y="290" width="160" height="120" as="geometry" />
        </mxCell>
        <mxCell id="yFTh20599D0vbG3zgtuJ-13" value="&lt;u&gt;+adminID&lt;/u&gt;&lt;div&gt;&lt;i&gt;+personID&lt;/i&gt;&lt;/div&gt;" style="align=left;strokeColor=none;fillColor=none;spacingLeft=4;fontSize=12;verticalAlign=top;resizable=0;rotatable=0;part=1;html=1;" vertex="1" parent="yFTh20599D0vbG3zgtuJ-12">
          <mxGeometry y="50" width="160" height="70" as="geometry" />
        </mxCell>
        <mxCell id="yFTh20599D0vbG3zgtuJ-14" value="is" style="shape=rhombus;perimeter=rhombusPerimeter;whiteSpace=wrap;html=1;align=center;" vertex="1" parent="1">
          <mxGeometry x="180" y="60" width="120" height="60" as="geometry" />
        </mxCell>
        <mxCell id="yFTh20599D0vbG3zgtuJ-15" value="is" style="shape=rhombus;perimeter=rhombusPerimeter;whiteSpace=wrap;html=1;align=center;" vertex="1" parent="1">
          <mxGeometry x="180" y="180" width="120" height="60" as="geometry" />
        </mxCell>
        <mxCell id="yFTh20599D0vbG3zgtuJ-16" value="is" style="shape=rhombus;perimeter=rhombusPerimeter;whiteSpace=wrap;html=1;align=center;" vertex="1" parent="1">
          <mxGeometry x="180" y="320" width="120" height="60" as="geometry" />
        </mxCell>
        <mxCell id="yFTh20599D0vbG3zgtuJ-18" value="1" style="edgeStyle=orthogonalEdgeStyle;rounded=0;orthogonalLoop=1;jettySize=auto;html=1;exitX=1;exitY=0.5;exitDx=0;exitDy=0;entryX=0;entryY=0.142;entryDx=0;entryDy=0;entryPerimeter=0;" edge="1" parent="1" source="yFTh20599D0vbG3zgtuJ-14" target="yFTh20599D0vbG3zgtuJ-5">
          <mxGeometry relative="1" as="geometry" />
        </mxCell>
        <mxCell id="yFTh20599D0vbG3zgtuJ-19" value="1" style="edgeStyle=orthogonalEdgeStyle;rounded=0;orthogonalLoop=1;jettySize=auto;html=1;exitX=1;exitY=0.25;exitDx=0;exitDy=0;entryX=0;entryY=0.5;entryDx=0;entryDy=0;" edge="1" parent="1" source="yFTh20599D0vbG3zgtuJ-2" target="yFTh20599D0vbG3zgtuJ-15">
          <mxGeometry relative="1" as="geometry" />
        </mxCell>
        <mxCell id="yFTh20599D0vbG3zgtuJ-20" value="1" style="edgeStyle=orthogonalEdgeStyle;rounded=0;orthogonalLoop=1;jettySize=auto;html=1;exitX=1;exitY=0.5;exitDx=0;exitDy=0;entryX=-0.011;entryY=0.405;entryDx=0;entryDy=0;entryPerimeter=0;" edge="1" parent="1" source="yFTh20599D0vbG3zgtuJ-15" target="yFTh20599D0vbG3zgtuJ-10">
          <mxGeometry relative="1" as="geometry" />
        </mxCell>
        <mxCell id="yFTh20599D0vbG3zgtuJ-21" value="1" style="edgeStyle=orthogonalEdgeStyle;rounded=0;orthogonalLoop=1;jettySize=auto;html=1;exitX=1;exitY=1;exitDx=0;exitDy=0;entryX=0;entryY=0.5;entryDx=0;entryDy=0;" edge="1" parent="1" source="yFTh20599D0vbG3zgtuJ-2" target="yFTh20599D0vbG3zgtuJ-16">
          <mxGeometry relative="1" as="geometry" />
        </mxCell>
        <mxCell id="yFTh20599D0vbG3zgtuJ-22" value="1" style="edgeStyle=orthogonalEdgeStyle;rounded=0;orthogonalLoop=1;jettySize=auto;html=1;exitX=1;exitY=0.5;exitDx=0;exitDy=0;entryX=0.014;entryY=0.153;entryDx=0;entryDy=0;entryPerimeter=0;" edge="1" parent="1" source="yFTh20599D0vbG3zgtuJ-16" target="yFTh20599D0vbG3zgtuJ-13">
          <mxGeometry relative="1" as="geometry" />
        </mxCell>
        <mxCell id="yFTh20599D0vbG3zgtuJ-30" value="training_relationship" style="swimlane;childLayout=stackLayout;horizontal=1;startSize=50;horizontalStack=0;rounded=1;fontSize=14;fontStyle=0;strokeWidth=2;resizeParent=0;resizeLast=1;shadow=0;dashed=0;align=center;arcSize=4;whiteSpace=wrap;html=1;" vertex="1" parent="1">
          <mxGeometry x="690" y="30" width="160" height="130" as="geometry" />
        </mxCell>
        <mxCell id="yFTh20599D0vbG3zgtuJ-31" value="&lt;u&gt;+training_relationshipID&lt;/u&gt;&lt;div&gt;&lt;i&gt;+traineeID&lt;/i&gt;&lt;/div&gt;&lt;div&gt;&lt;i&gt;+instructorID&lt;/i&gt;&lt;/div&gt;&lt;div&gt;&lt;i&gt;+&lt;/i&gt;activeTraining(false when&lt;/div&gt;&lt;div&gt;the training is finished)&lt;/div&gt;" style="align=left;strokeColor=none;fillColor=none;spacingLeft=4;fontSize=12;verticalAlign=top;resizable=0;rotatable=0;part=1;html=1;" vertex="1" parent="yFTh20599D0vbG3zgtuJ-30">
          <mxGeometry y="50" width="160" height="80" as="geometry" />
        </mxCell>
        <mxCell id="yFTh20599D0vbG3zgtuJ-38" value="1" style="edgeStyle=orthogonalEdgeStyle;rounded=0;orthogonalLoop=1;jettySize=auto;html=1;exitX=1;exitY=0.5;exitDx=0;exitDy=0;entryX=0;entryY=0.5;entryDx=0;entryDy=0;" edge="1" parent="1" source="yFTh20599D0vbG3zgtuJ-33" target="yFTh20599D0vbG3zgtuJ-30">
          <mxGeometry relative="1" as="geometry" />
        </mxCell>
        <mxCell id="yFTh20599D0vbG3zgtuJ-33" value="is part of&lt;span style=&quot;color: rgba(0, 0, 0, 0); font-family: monospace; font-size: 0px; text-align: start; text-wrap: nowrap;&quot;&gt;%3CmxGraphModel%3E%3Croot%3E%3CmxCell%20id%3D%220%22%2F%3E%3CmxCell%20id%3D%221%22%20parent%3D%220%22%2F%3E%3CmxCell%20id%3D%222%22%20value%3D%22ist%22%20style%3D%22shape%3Drhombus%3Bperimeter%3DrhombusPerimeter%3BwhiteSpace%3Dwrap%3Bhtml%3D1%3Balign%3Dcenter%3B%22%20vertex%3D%221%22%20parent%3D%221%22%3E%3CmxGeometry%20x%3D%22180%22%20y%3D%2260%22%20width%3D%22120%22%20height%3D%2260%22%20as%3D%22geometry%22%2F%3E%3C%2FmxCell%3E%3C%2Froot%3E%3C%2FmxGraphModel%3E&lt;/span&gt;" style="shape=rhombus;perimeter=rhombusPerimeter;whiteSpace=wrap;html=1;align=center;" vertex="1" parent="1">
          <mxGeometry x="580" y="70" width="80" height="40" as="geometry" />
        </mxCell>
        <mxCell id="yFTh20599D0vbG3zgtuJ-36" value="n" style="edgeStyle=orthogonalEdgeStyle;rounded=0;orthogonalLoop=1;jettySize=auto;html=1;exitX=1;exitY=0.5;exitDx=0;exitDy=0;entryX=0.25;entryY=1;entryDx=0;entryDy=0;" edge="1" parent="1" source="yFTh20599D0vbG3zgtuJ-34" target="yFTh20599D0vbG3zgtuJ-31">
          <mxGeometry relative="1" as="geometry" />
        </mxCell>
        <mxCell id="yFTh20599D0vbG3zgtuJ-34" value="is part of&lt;span style=&quot;color: rgba(0, 0, 0, 0); font-family: monospace; font-size: 0px; text-align: start; text-wrap: nowrap;&quot;&gt;%3CmxGraphModel%3E%3Croot%3E%3CmxCell%20id%3D%220%22%2F%3E%3CmxCell%20id%3D%221%22%20parent%3D%220%22%2F%3E%3CmxCell%20id%3D%222%22%20value%3D%22ist%22%20style%3D%22shape%3Drhombus%3Bperimeter%3DrhombusPerimeter%3BwhiteSpace%3Dwrap%3Bhtml%3D1%3Balign%3Dcenter%3B%22%20vertex%3D%221%22%20parent%3D%221%22%3E%3CmxGeometry%20x%3D%22180%22%20y%3D%2260%22%20width%3D%22120%22%20height%3D%2260%22%20as%3D%22geometry%22%2F%3E%3C%2FmxCell%3E%3C%2Froot%3E%3C%2FmxGraphModel%3E&lt;/span&gt;" style="shape=rhombus;perimeter=rhombusPerimeter;whiteSpace=wrap;html=1;align=center;" vertex="1" parent="1">
          <mxGeometry x="590" y="190" width="80" height="40" as="geometry" />
        </mxCell>
        <mxCell id="yFTh20599D0vbG3zgtuJ-35" value="1" style="edgeStyle=orthogonalEdgeStyle;rounded=0;orthogonalLoop=1;jettySize=auto;html=1;exitX=1;exitY=0;exitDx=0;exitDy=0;entryX=0;entryY=0.5;entryDx=0;entryDy=0;" edge="1" parent="1" source="yFTh20599D0vbG3zgtuJ-11" target="yFTh20599D0vbG3zgtuJ-34">
          <mxGeometry relative="1" as="geometry" />
        </mxCell>
        <mxCell id="yFTh20599D0vbG3zgtuJ-37" value="1" style="edgeStyle=orthogonalEdgeStyle;rounded=0;orthogonalLoop=1;jettySize=auto;html=1;exitX=1;exitY=0.25;exitDx=0;exitDy=0;entryX=0;entryY=0.5;entryDx=0;entryDy=0;" edge="1" parent="1" source="yFTh20599D0vbG3zgtuJ-5" target="yFTh20599D0vbG3zgtuJ-33">
          <mxGeometry relative="1" as="geometry" />
        </mxCell>
        <mxCell id="yFTh20599D0vbG3zgtuJ-39" value="report" style="swimlane;childLayout=stackLayout;horizontal=1;startSize=50;horizontalStack=0;rounded=1;fontSize=14;fontStyle=0;strokeWidth=2;resizeParent=0;resizeLast=1;shadow=0;dashed=0;align=center;arcSize=4;whiteSpace=wrap;html=1;" vertex="1" parent="1">
          <mxGeometry x="1050" y="10" width="160" height="200" as="geometry" />
        </mxCell>
        <mxCell id="yFTh20599D0vbG3zgtuJ-40" value="&lt;u&gt;+reportID&lt;/u&gt;&lt;div&gt;&lt;i&gt;+training_relationshipID&lt;/i&gt;&lt;/div&gt;&lt;div&gt;+reportText&lt;/div&gt;&lt;div&gt;+comment&lt;/div&gt;&lt;div&gt;+date&lt;/div&gt;&lt;div&gt;+startingTime&lt;/div&gt;&lt;div&gt;+endTime&lt;/div&gt;&lt;div&gt;+breakTime&lt;/div&gt;&lt;div&gt;+totalWorkTime&lt;/div&gt;&lt;div&gt;+acknowledged&lt;/div&gt;" style="align=left;strokeColor=none;fillColor=none;spacingLeft=4;fontSize=12;verticalAlign=top;resizable=0;rotatable=0;part=1;html=1;" vertex="1" parent="yFTh20599D0vbG3zgtuJ-39">
          <mxGeometry y="50" width="160" height="150" as="geometry" />
        </mxCell>
        <mxCell id="yFTh20599D0vbG3zgtuJ-46" value="n" style="edgeStyle=orthogonalEdgeStyle;rounded=0;orthogonalLoop=1;jettySize=auto;html=1;exitX=1;exitY=0.5;exitDx=0;exitDy=0;entryX=0;entryY=0.25;entryDx=0;entryDy=0;" edge="1" parent="1" source="yFTh20599D0vbG3zgtuJ-44" target="yFTh20599D0vbG3zgtuJ-40">
          <mxGeometry relative="1" as="geometry" />
        </mxCell>
        <mxCell id="yFTh20599D0vbG3zgtuJ-44" value="has" style="shape=rhombus;perimeter=rhombusPerimeter;whiteSpace=wrap;html=1;align=center;" vertex="1" parent="1">
          <mxGeometry x="890" y="70" width="100" height="50" as="geometry" />
        </mxCell>
        <mxCell id="yFTh20599D0vbG3zgtuJ-45" value="1" style="edgeStyle=orthogonalEdgeStyle;rounded=0;orthogonalLoop=1;jettySize=auto;html=1;exitX=1;exitY=0.25;exitDx=0;exitDy=0;entryX=0;entryY=0.5;entryDx=0;entryDy=0;" edge="1" parent="1" source="yFTh20599D0vbG3zgtuJ-31" target="yFTh20599D0vbG3zgtuJ-44">
          <mxGeometry relative="1" as="geometry" />
        </mxCell>
      </root>
    </mxGraphModel>
  </diagram>
</mxfile>
